<svg width="34" height="37" viewBox="0 0 34 37" fill="none" xmlns="http://www.w3.org/2000/svg">
<path fill-rule="evenodd" clip-rule="evenodd" d="M25.3125 0C25.6855 0 26.0429 0.148387 26.3066 0.412109C26.5704 0.675832 26.7188 1.03329 26.7188 1.40625V2.8125H30.9375C31.6834 2.8125 32.3983 3.10927 32.9258 3.63672C33.4532 4.16416 33.75 4.87908 33.75 5.625V33.75C33.75 34.4959 33.4532 35.2108 32.9258 35.7383C32.3983 36.2657 31.6834 36.5625 30.9375 36.5625H2.8125C2.06658 36.5625 1.35166 36.2657 0.824219 35.7383C0.296773 35.2108 0 34.4959 0 33.75V5.625C0 4.87908 0.296773 4.16417 0.824219 3.63672C1.35166 3.10927 2.06658 2.8125 2.8125 2.8125H7.03125V1.40625C7.03125 1.03329 7.17964 0.675832 7.44336 0.412109C7.70708 0.148386 8.06454 0 8.4375 0C8.81046 0 9.16792 0.148386 9.43164 0.412109C9.69536 0.675832 9.84375 1.03329 9.84375 1.40625V2.8125H23.9062V1.40625C23.9062 1.03329 24.0546 0.675832 24.3184 0.412109C24.5821 0.148387 24.9395 0 25.3125 0ZM13.0996 15.1875C12.8487 15.1875 12.6081 15.2909 12.4307 15.4746L8.65234 19.3877C8.56449 19.4785 8.49486 19.5864 8.44727 19.7051C8.39962 19.8239 8.37502 19.9514 8.375 20.0801C8.375 20.2087 8.39965 20.3362 8.44727 20.4551C8.49492 20.574 8.56432 20.6826 8.65234 20.7734L12.4307 24.6855C12.6081 24.8693 12.8487 24.9727 13.0996 24.9727C13.3504 24.9726 13.5912 24.8692 13.7686 24.6855C13.9457 24.5018 14.0449 24.2528 14.0449 23.9932C14.0449 23.7333 13.946 23.4836 13.7686 23.2998L11.6025 21.0576H20.0234C20.9418 21.0576 21.8223 21.4358 22.4717 22.1084C23.1211 22.781 23.4863 23.6933 23.4863 24.6445C23.4863 25.5957 23.121 26.5081 22.4717 27.1807C21.8223 27.8532 20.9417 28.2314 20.0234 28.2314H13.0977C12.8472 28.2315 12.6068 28.3342 12.4297 28.5176C12.2527 28.7009 12.1534 28.9497 12.1533 29.209C12.1533 29.4684 12.2526 29.7179 12.4297 29.9014C12.6068 30.0848 12.8472 30.1875 13.0977 30.1875H20.0234C21.4422 30.186 22.8024 29.6015 23.8057 28.5625C24.8089 27.5233 25.3735 26.1141 25.375 24.6445C25.3733 23.1749 24.8089 21.7657 23.8057 20.7266C22.8024 19.6875 21.4422 19.1033 20.0234 19.1016H11.6025L13.7686 16.8604C13.9459 16.6766 14.0449 16.4268 14.0449 16.167C14.0448 15.9073 13.9458 15.6583 13.7686 15.4746C13.5912 15.2909 13.3504 15.1876 13.0996 15.1875ZM2.8125 5.625V11.25H30.9375V5.625H26.7188V7.03125C26.7188 7.40421 26.5704 7.76167 26.3066 8.02539C26.0429 8.28911 25.6855 8.4375 25.3125 8.4375C24.9395 8.4375 24.5821 8.28911 24.3184 8.02539C24.0546 7.76167 23.9062 7.40421 23.9062 7.03125V5.625H9.84375V7.03125C9.84375 7.40421 9.69536 7.76167 9.43164 8.02539C9.16792 8.28911 8.81046 8.4375 8.4375 8.4375C8.06454 8.4375 7.70708 8.28911 7.44336 8.02539C7.17964 7.76167 7.03125 7.40421 7.03125 7.03125V5.625H2.8125Z" fill="#18314F"/>
</svg>
