<svg width="80" height="15" viewBox="0 0 80 15" fill="none" xmlns="http://www.w3.org/2000/svg">
<path d="M0 7.51052C0 6.07995 0.32416 4.79664 0.97248 3.66059C1.6208 2.51051 2.50168 1.6129 3.61509 0.967741C4.74261 0.322581 5.98992 0 7.35703 0C8.96374 0 10.3661 0.385695 11.5641 1.15708C12.762 1.92847 13.6359 3.02244 14.1855 4.43899H11.8812C11.4724 3.5554 10.8805 2.87518 10.1053 2.39832C9.34427 1.92145 8.42816 1.68304 7.35703 1.68304C6.32818 1.68304 5.40502 1.92145 4.58757 2.39832C3.77013 2.87518 3.12885 3.5554 2.66375 4.43899C2.19865 5.30855 1.9661 6.3324 1.9661 7.51052C1.9661 8.67461 2.19865 9.69846 2.66375 10.582C3.12885 11.4516 3.77013 12.1248 4.58757 12.6017C5.40502 13.0785 6.32818 13.317 7.35703 13.317C8.42816 13.317 9.34427 13.0856 10.1053 12.6227C10.8805 12.1459 11.4724 11.4656 11.8812 10.582H14.1855C13.6359 11.9846 12.762 13.0715 11.5641 13.8429C10.3661 14.6003 8.96374 14.979 7.35703 14.979C5.98992 14.979 4.74261 14.6634 3.61509 14.0323C2.50168 13.3871 1.6208 12.4965 0.97248 11.3604C0.32416 10.2244 0 8.9411 0 7.51052ZM18.9731 13.2959H24.1315V14.8527H17.0493V0.189341H18.9731V13.2959ZM32.8551 15C31.488 15 30.2407 14.6844 29.1131 14.0533C27.9856 13.4081 27.0907 12.5175 26.4282 11.3815C25.78 10.2314 25.4558 8.9411 25.4558 7.51052C25.4558 6.07995 25.78 4.79664 26.4282 3.66059C27.0907 2.51051 27.9856 1.61992 29.1131 0.988779C30.2407 0.343619 31.488 0.0210377 32.8551 0.0210377C34.2363 0.0210377 35.4906 0.343619 36.6181 0.988779C37.7457 1.61992 38.6336 2.50351 39.2819 3.63956C39.9302 4.7756 40.2544 6.06591 40.2544 7.51052C40.2544 8.95512 39.9302 10.2454 39.2819 11.3815C38.6336 12.5175 37.7457 13.4081 36.6181 14.0533C35.4906 14.6844 34.2363 15 32.8551 15ZM32.8551 13.338C33.8839 13.338 34.8071 13.0996 35.6245 12.6227C36.4561 12.1459 37.1044 11.4656 37.5695 10.582C38.0486 9.69846 38.2883 8.67461 38.2883 7.51052C38.2883 6.3324 38.0486 5.30855 37.5695 4.43899C37.1044 3.5554 36.4631 2.87518 35.6457 2.39832C34.8283 1.92145 33.8981 1.68304 32.8551 1.68304C31.8121 1.68304 30.8819 1.92145 30.0645 2.39832C29.2471 2.87518 28.5987 3.5554 28.1195 4.43899C27.6544 5.30855 27.4219 6.3324 27.4219 7.51052C27.4219 8.67461 27.6544 9.69846 28.1195 10.582C28.5987 11.4656 29.2471 12.1459 30.0645 12.6227C30.8961 13.0996 31.8263 13.338 32.8551 13.338Z" fill="#18314F"/>
<path d="M54.3321 2.25H50.2049C48.8054 2.25 47.4632 2.80312 46.4736 3.78768C45.484 4.77225 44.9281 6.10761 44.9281 7.5C44.9281 8.89239 45.484 10.2278 46.4736 11.2123C47.4632 12.1969 48.8054 12.75 50.2049 12.75H54.3321V15H50.1861V14.9999C48.1936 14.995 46.2838 14.2054 44.8746 12.8033C43.4609 11.3968 42.6666 9.48912 42.6666 7.5C42.6666 5.51088 43.4609 3.60324 44.8746 2.19672C46.2838 0.794614 48.1936 0.00498556 50.1861 3.66211e-05L54.3321 0V2.25Z" fill="#D1495B"/>
<path d="M55.4252 7.44375L62.9635 15H59.8351L52.2968 7.44375L59.8351 0H62.9635L55.4252 7.44375Z" fill="#D1495B"/>
<path d="M67.347 0V15H65.3757V0H67.347ZM80 0V1.59254H75.8841V15H73.9128V1.59254H69.7753V0H80Z" fill="#18314F"/>
</svg>
