<svg width="588" height="588" viewBox="0 0 588 588" fill="none" xmlns="http://www.w3.org/2000/svg">
<path d="M337.949 140.7H218.384C177.84 140.7 138.957 156.851 110.289 185.6C81.6206 214.35 65.5151 253.342 65.5151 294C65.5151 334.658 81.6206 373.65 110.289 402.4C138.957 431.149 177.84 447.3 218.384 447.3H337.949V513H217.838V512.998C160.116 512.853 104.79 489.797 63.9636 448.856C23.0087 407.785 -7.29692e-09 352.082 0 294C5.06343e-06 235.918 23.0087 180.215 63.9636 139.144C104.79 98.2027 160.116 75.1456 217.838 75.0011L337.949 75V140.7Z" fill="#18314F"/>
<path d="M369.616 292.358L588 513H497.371L278.985 292.358L497.371 75H588L369.616 292.358Z" fill="#18314F"/>
</svg>
